<svg version="1.1" id="Layer_1" xmlns="http://www.w3.org/2000/svg" xmlns:xlink="http://www.w3.org/1999/xlink" x="0px" y="0px"
	 width="100%" viewBox="0 0 512 512" enable-background="new 0 0 512 512" xml:space="preserve">
<path fill=" transparent" opacity="1.000000" stroke="none"
	d="
M288.000000,513.000000 
	C192.023300,513.000000 96.546600,513.000000 1.034948,513.000000 
	C1.034948,342.398285 1.034948,171.796539 1.034948,1.097402 
	C171.560043,1.097402 342.120178,1.097402 512.840149,1.097402 
	C512.840149,171.666550 512.840149,342.333252 512.840149,513.000000 
	C438.129852,513.000000 363.314911,513.000000 288.000000,513.000000 
M217.500000,503.001953 
	C297.496307,503.001984 377.493378,502.833740 457.488190,503.181183 
	C469.671387,503.234100 477.503113,496.692078 477.376312,483.575592 
	C476.921997,436.582214 476.938293,389.579407 477.367950,342.585541 
	C477.487701,329.489105 469.431213,323.145111 458.185181,323.286743 
	C425.691864,323.695953 393.190063,323.435394 360.691620,323.437805 
	C358.749481,323.437927 356.807373,323.437836 356.094116,323.437836 
	C356.394379,306.553925 356.718597,290.284119 356.956512,274.013031 
	C357.056396,267.181519 356.827148,260.341949 357.076050,253.518036 
	C357.138824,251.797134 358.037842,249.675049 359.274841,248.493423 
	C377.780701,230.815750 377.906586,203.687500 359.601990,185.891220 
	C358.176331,184.505142 357.228912,182.035019 357.099701,180.002579 
	C356.181213,165.558990 356.987457,150.849045 354.559845,136.684036 
	C340.794037,56.361763 266.554321,1.622101 185.824707,13.019503 
	C127.624657,21.236179 87.491661,54.043800 65.010818,108.262360 
	C55.834606,130.393250 54.173450,153.760956 55.029419,177.402298 
	C55.146183,180.627258 54.288387,182.762390 51.683231,184.973495 
	C31.446144,202.149506 31.774420,232.723618 52.014069,249.755463 
	C53.592876,251.084015 54.832390,253.762741 54.862621,255.833923 
	C55.093662,271.663086 54.769016,287.500732 55.029408,303.328949 
	C55.507023,332.361115 68.589813,354.160919 93.475929,368.976776 
	C94.552544,369.617706 95.583694,370.334991 96.815300,371.132874 
	C95.895653,371.980621 95.297737,372.546814 94.684021,373.095306 
	C76.010048,389.785034 66.565437,410.638763 66.512230,435.696381 
	C66.469765,455.695343 66.483757,475.694427 66.491501,495.693481 
	C66.494072,502.349213 67.181648,502.999908 74.006775,503.000275 
	C121.504517,503.002960 169.002258,503.001862 217.500000,503.001953 
z"/>
<path fill="#020101" opacity="1.000000" stroke="none" border='solid 1px red ' 
	d="
M217.000000,503.001953 
	C169.002258,503.001862 121.504517,503.002960 74.006775,503.000275 
	C67.181648,502.999908 66.494072,502.349213 66.491501,495.693481 
	C66.483757,475.694427 66.469765,455.695343 66.512230,435.696381 
	C66.565437,410.638763 76.010048,389.785034 94.684021,373.095306 
	C95.297737,372.546814 95.895653,371.980621 96.815300,371.132874 
	C95.583694,370.334991 94.552544,369.617706 93.475929,368.976776 
	C68.589813,354.160919 55.507023,332.361115 55.029408,303.328949 
	C54.769016,287.500732 55.093662,271.663086 54.862621,255.833923 
	C54.832390,253.762741 53.592876,251.084015 52.014069,249.755463 
	C31.774420,232.723618 31.446144,202.149506 51.683231,184.973495 
	C54.288387,182.762390 55.146183,180.627258 55.029419,177.402298 
	C54.173450,153.760956 55.834606,130.393250 65.010818,108.262360 
	C87.491661,54.043800 127.624657,21.236179 185.824707,13.019503 
	C266.554321,1.622101 340.794037,56.361763 354.559845,136.684036 
	C356.987457,150.849045 356.181213,165.558990 357.099701,180.002579 
	C357.228912,182.035019 358.176331,184.505142 359.601990,185.891220 
	C377.906586,203.687500 377.780701,230.815750 359.274841,248.493423 
	C358.037842,249.675049 357.138824,251.797134 357.076050,253.518036 
	C356.827148,260.341949 357.056396,267.181519 356.956512,274.013031 
	C356.718597,290.284119 356.394379,306.553925 356.094116,323.437836 
	C356.807373,323.437836 358.749481,323.437927 360.691620,323.437805 
	C393.190063,323.435394 425.691864,323.695953 458.185181,323.286743 
	C469.431213,323.145111 477.487701,329.489105 477.367950,342.585541 
	C476.938293,389.579407 476.921997,436.582214 477.376312,483.575592 
	C477.503113,496.692078 469.671387,503.234100 457.488190,503.181183 
	C377.493378,502.833740 297.496307,503.001984 217.000000,503.001953 
M242.145935,144.343307 
	C241.883194,144.145645 241.620438,143.947983 241.357681,143.750320 
	C241.540543,144.192139 241.723404,144.633942 241.969604,145.794464 
	C247.522293,158.033936 255.721603,167.619629 268.337463,173.173798 
	C270.055328,173.930084 271.729279,176.998184 271.649994,178.922806 
	C271.586853,180.454178 269.006805,182.218399 267.183594,183.228180 
	C265.859497,183.961487 263.943665,183.779510 262.296204,183.750488 
	C252.813980,183.583344 243.324982,183.519302 233.853241,183.090073 
	C201.575989,181.627365 176.828369,166.864868 159.110306,140.111160 
	C155.895752,135.257294 153.424408,129.911224 150.411697,124.431778 
	C150.034424,125.598984 149.807541,126.220947 149.631516,126.856987 
	C140.768402,158.883759 111.418411,182.266083 78.738297,183.167664 
	C70.005440,183.408600 62.047207,185.927399 55.521809,192.065201 
	C45.462727,201.526764 42.118385,216.417297 47.071434,229.733078 
	C51.553539,241.782776 63.996727,250.462646 77.655121,251.067017 
	C86.300354,251.449554 86.471596,251.651382 88.567780,258.381805 
	C102.364082,302.678955 131.901428,330.654358 176.559845,342.652344 
	C189.640259,346.166565 203.053741,346.798676 216.703476,345.536346 
	C216.884155,344.252350 217.102692,343.297821 217.141098,342.336060 
	C217.687408,328.656250 223.370865,323.211243 237.154068,323.205566 
	C248.649673,323.200836 260.148193,323.339020 271.638519,323.092926 
	C274.083923,323.040527 276.933594,322.172852 278.862183,320.711182 
	C299.404724,305.142426 313.202179,284.787140 320.820831,260.238373 
	C323.047485,253.063766 321.529541,251.434143 332.731476,250.979706 
	C351.315399,250.225815 365.045135,235.612457 365.044403,217.070190 
	C365.043701,198.693146 351.077820,184.114059 332.711365,183.000504 
	C306.952271,181.438736 283.094055,173.909256 261.663422,159.365845 
	C254.969070,154.822876 248.670731,149.696350 242.145935,144.343307 
M427.500000,495.000580 
	C437.660583,495.002106 447.821136,495.005585 457.981720,495.004608 
	C467.166748,495.003754 469.163818,493.048248 469.165039,483.972534 
	C469.171265,437.166473 469.169098,390.360413 469.167969,343.554352 
	C469.167694,333.085663 467.483093,331.365051 457.002258,331.363190 
	C383.545074,331.350189 310.087860,331.349823 236.630676,331.354645 
	C227.625488,331.355225 225.279297,333.656586 225.276871,342.509521 
	C225.264008,389.482147 225.262329,436.454773 225.268600,483.427399 
	C225.269867,492.969086 227.370636,495.000244 237.110352,495.000305 
	C300.240234,495.000793 363.370117,495.000580 427.500000,495.000580 
M74.928810,479.496460 
	C74.928810,484.569336 74.928810,489.642212 74.928810,494.546082 
	C99.816170,494.546082 123.707687,494.546082 147.971130,494.546082 
	C147.971130,489.623718 147.958191,485.141663 147.973785,480.659637 
	C148.008041,470.817413 150.792114,468.048431 160.685532,468.043030 
	C177.848877,468.033691 195.012711,468.095856 212.174805,467.949127 
	C213.781738,467.935425 216.721771,466.722198 216.766983,465.935150 
	C217.141205,459.421173 216.978821,452.876373 216.978821,445.529236 
	C214.548004,447.051056 212.970947,447.715912 211.813934,448.820648 
	C207.610916,452.833740 203.842300,452.448517 199.718491,448.517639 
	C195.039246,444.057312 189.853348,440.130707 185.140335,435.703217 
	C171.989838,423.349304 163.179657,408.181793 158.184540,391.018158 
	C155.386169,381.402710 154.128159,371.338959 152.094284,361.063812 
	C136.721298,360.700439 122.147560,363.949921 109.170372,372.482269 
	C88.194069,386.273987 75.711494,405.392242 75.026917,431.009369 
	C74.604164,446.828522 74.935715,462.667816 74.928810,479.496460 
M217.085892,355.752808 
	C215.433655,355.148712 213.761551,353.973206 212.132278,354.029846 
	C197.563522,354.536194 183.256653,353.047211 169.224197,349.041382 
	C166.937134,348.388489 164.621643,347.835144 161.860245,347.116272 
	C161.860245,353.124603 161.755997,358.434296 161.877960,363.738770 
	C162.466141,389.319183 187.134613,409.016846 212.260193,404.374969 
	C216.446335,403.601532 217.262970,401.923737 217.216492,398.176208 
	C217.045090,384.355347 217.141876,370.531128 217.085892,355.752808 
M217.273346,481.517517 
	C217.189514,479.911438 217.105682,478.305328 217.011261,476.496277 
	C196.571381,476.496277 176.545792,476.496277 156.332977,476.496277 
	C156.332977,482.790070 156.332977,488.790344 156.332977,494.626587 
	C177.400803,494.626587 198.033997,494.626587 218.254974,494.626587 
	C217.908829,490.324707 217.591873,486.385559 217.273346,481.517517 
M176.262711,404.254211 
	C174.793732,403.400146 173.324738,402.546051 170.642654,400.986694 
	C179.397446,418.940216 190.834045,432.532593 206.043106,443.064636 
	C207.916473,441.664886 209.631058,440.607178 211.070053,439.255951 
	C213.204605,437.251709 216.622299,435.208313 216.887741,432.884003 
	C217.668762,426.045044 217.166306,419.059540 217.166306,411.689636 
	C202.357239,414.720001 189.101151,412.389038 176.262711,404.254211 
z"/>
<path fill="#4f2903" opacity="1.000000" stroke="none" 
	d="
M242.191116,144.836945 
	C248.670731,149.696350 254.969070,154.822876 261.663422,159.365845 
	C283.094055,173.909256 306.952271,181.438736 332.711365,183.000504 
	C351.077820,184.114059 365.043701,198.693146 365.044403,217.070190 
	C365.045135,235.612457 351.315399,250.225815 332.731476,250.979706 
	C321.529541,251.434143 323.047485,253.063766 320.820831,260.238373 
	C313.202179,284.787140 299.404724,305.142426 278.862183,320.711182 
	C276.933594,322.172852 274.083923,323.040527 271.638519,323.092926 
	C260.148193,323.339020 248.649673,323.200836 237.154068,323.205566 
	C223.370865,323.211243 217.687408,328.656250 217.141098,342.336060 
	C217.102692,343.297821 216.884155,344.252350 216.703476,345.536346 
	C203.053741,346.798676 189.640259,346.166565 176.559845,342.652344 
	C131.901428,330.654358 102.364082,302.678955 88.567780,258.381805 
	C86.471596,251.651382 86.300354,251.449554 77.655121,251.067017 
	C63.996727,250.462646 51.553539,241.782776 47.071434,229.733078 
	C42.118385,216.417297 45.462727,201.526764 55.521809,192.065201 
	C62.047207,185.927399 70.005440,183.408600 78.738297,183.167664 
	C111.418411,182.266083 140.768402,158.883759 149.631516,126.856987 
	C149.807541,126.220947 150.034424,125.598984 150.411697,124.431778 
	C153.424408,129.911224 155.895752,135.257294 159.110306,140.111160 
	C176.828369,166.864868 201.575989,181.627365 233.853241,183.090073 
	C243.324982,183.519302 252.813980,183.583344 262.296204,183.750488 
	C263.943665,183.779510 265.859497,183.961487 267.183594,183.228180 
	C269.006805,182.218399 271.586853,180.454178 271.649994,178.922806 
	C271.729279,176.998184 270.055328,173.930084 268.337463,173.173798 
	C255.721603,167.619629 247.522293,158.033936 242.009125,145.375366 
	C242.048630,144.956284 242.191116,144.836945 242.191116,144.836945 
M132.116165,234.970627 
	C136.105637,242.587708 142.584366,246.211319 149.381882,244.627487 
	C157.066635,242.836945 161.739136,236.733978 161.872070,228.161148 
	C161.946945,223.333038 162.081146,218.491760 161.827484,213.675446 
	C161.224075,202.218735 151.782639,195.801178 140.927414,199.011063 
	C139.288559,199.495682 136.933151,198.870712 135.364517,197.967896 
	C133.072220,196.648636 130.628448,194.802109 128.991379,197.695770 
	C128.124756,199.227585 129.377106,202.022354 129.825912,204.215622 
	C130.249313,206.284668 131.255814,208.296783 131.341415,210.361481 
	C131.670563,218.300003 131.733017,226.249588 132.116165,234.970627 
M276.238007,237.540894 
	C280.764465,229.969498 278.799286,221.610870 278.692291,213.614365 
	C278.635376,209.360550 277.915680,205.673553 281.598877,202.425766 
	C282.400360,201.719009 282.088470,198.305191 281.124573,197.448090 
	C280.165619,196.595352 277.616058,197.026733 275.998322,197.580093 
	C274.717255,198.018311 273.790649,199.492950 272.694916,200.518356 
	C270.548248,199.771805 268.573608,198.899033 266.508698,198.400299 
	C258.982727,196.582550 250.058609,201.921951 249.180542,209.536423 
	C248.369598,216.568970 248.568573,223.757446 248.812073,230.860489 
	C249.036270,237.400269 252.952133,241.924576 258.987457,243.607269 
	C265.433014,245.404373 271.568665,244.142578 276.238007,237.540894 
M291.012695,250.031769 
	C283.193604,249.839233 275.390259,249.413208 268.277344,253.828598 
	C261.774048,257.865601 261.092072,265.010223 267.022888,269.374817 
	C275.720367,275.775543 294.381409,275.760406 303.017578,269.345642 
	C308.816132,265.038605 308.519928,257.342194 302.124359,253.865707 
	C298.969971,252.151077 295.318329,251.351288 291.012695,250.031769 
M125.534073,249.968658 
	C119.491150,249.872055 113.816757,250.628006 108.687447,254.490952 
	C102.214134,259.366089 102.399429,266.609894 109.644569,270.241852 
	C120.894897,275.881622 132.227020,275.659332 143.388977,269.960693 
	C148.774445,267.211212 149.574539,260.164398 145.223297,256.114685 
	C139.907623,251.167389 133.523224,249.596100 125.534073,249.968658 
M202.864105,290.833588 
	C213.399902,291.348602 222.976151,288.721619 231.213623,281.966522 
	C233.361328,280.205322 235.439362,277.639496 232.766052,275.315338 
	C231.534271,274.244446 227.638321,274.343567 226.389130,275.485748 
	C216.050064,284.939270 195.606140,285.345215 185.103424,274.916992 
	C182.782181,272.612183 179.806885,272.741302 178.717773,275.977936 
	C178.184341,277.563110 179.314667,280.578247 180.701950,281.789307 
	C186.742508,287.062469 194.020050,289.815033 202.864105,290.833588 
z"/>
<path fill="#fff" opacity="1.000000" stroke="none" 
	d="
M427.000000,495.000580 
	C363.370117,495.000580 300.240234,495.000793 237.110352,495.000305 
	C227.370636,495.000244 225.269867,492.969086 225.268600,483.427399 
	C225.262329,436.454773 225.264008,389.482147 225.276871,342.509521 
	C225.279297,333.656586 227.625488,331.355225 236.630676,331.354645 
	C310.087860,331.349823 383.545074,331.350189 457.002258,331.363190 
	C467.483093,331.365051 469.167694,333.085663 469.167969,343.554352 
	C469.169098,390.360413 469.171265,437.166473 469.165039,483.972534 
	C469.163818,493.048248 467.166748,495.003754 457.981720,495.004608 
	C447.821136,495.005585 437.660583,495.002106 427.000000,495.000580 
M326.500061,368.400574 
	C317.169922,368.400726 307.839142,368.329620 298.509827,368.418579 
	C285.977753,368.538086 279.754883,374.776886 279.727661,387.199066 
	C279.689667,404.526398 279.705139,421.853851 279.722229,439.181274 
	C279.734833,451.965759 285.257111,458.328094 297.934753,458.443390 
	C331.086945,458.744873 364.244690,458.721863 397.397736,458.481384 
	C408.881165,458.398102 414.995422,451.549866 415.024689,440.029053 
	C415.067871,423.034973 415.041168,406.040710 415.036682,389.046509 
	C415.032806,374.332031 409.184937,368.431458 394.477173,368.411102 
	C372.151489,368.380219 349.825775,368.401794 326.500061,368.400574 
z"/>
<path fill="#a4cdc8" opacity="1.000000" stroke="none" 
	d="
M74.928719,478.997253 
	C74.935715,462.667816 74.604164,446.828522 75.026917,431.009369 
	C75.711494,405.392242 88.194069,386.273987 109.170372,372.482269 
	C122.147560,363.949921 136.721298,360.700439 152.094284,361.063812 
	C154.128159,371.338959 155.386169,381.402710 158.184540,391.018158 
	C163.179657,408.181793 171.989838,423.349304 185.140335,435.703217 
	C189.853348,440.130707 195.039246,444.057312 199.718491,448.517639 
	C203.842300,452.448517 207.610916,452.833740 211.813934,448.820648 
	C212.970947,447.715912 214.548004,447.051056 216.978821,445.529236 
	C216.978821,452.876373 217.141205,459.421173 216.766983,465.935150 
	C216.721771,466.722198 213.781738,467.935425 212.174805,467.949127 
	C195.012711,468.095856 177.848877,468.033691 160.685532,468.043030 
	C150.792114,468.048431 148.008041,470.817413 147.973785,480.659637 
	C147.958191,485.141663 147.971130,489.623718 147.971130,494.546082 
	C123.707687,494.546082 99.816170,494.546082 74.928810,494.546082 
	C74.928810,489.642212 74.928810,484.569336 74.928719,478.997253 
z"/>
<path fill="#4f2903" opacity="1.000000" stroke="none" 
	d="
M217.111847,356.230499 
	C217.141876,370.531128 217.045090,384.355347 217.216492,398.176208 
	C217.262970,401.923737 216.446335,403.601532 212.260193,404.374969 
	C187.134613,409.016846 162.466141,389.319183 161.877960,363.738770 
	C161.755997,358.434296 161.860245,353.124603 161.860245,347.116272 
	C164.621643,347.835144 166.937134,348.388489 169.224197,349.041382 
	C183.256653,353.047211 197.563522,354.536194 212.132278,354.029846 
	C213.761551,353.973206 215.433655,355.148712 217.111847,356.230499 
z"/>
<path fill="#fff" opacity="1.000000" stroke="none" 
	d="
M217.274139,481.981964 
	C217.591873,486.385559 217.908829,490.324707 218.254974,494.626587 
	C198.033997,494.626587 177.400803,494.626587 156.332977,494.626587 
	C156.332977,488.790344 156.332977,482.790070 156.332977,476.496277 
	C176.545792,476.496277 196.571381,476.496277 217.011261,476.496277 
	C217.105682,478.305328 217.189514,479.911438 217.274139,481.981964 
z"/>
<path fill="" opacity="1.000000" stroke="none" 
	d="
M176.561081,404.464691 
	C189.101151,412.389038 202.357239,414.720001 217.166306,411.689636 
	C217.166306,419.059540 217.668762,426.045044 216.887741,432.884003 
	C216.622299,435.208313 213.204605,437.251709 211.070053,439.255951 
	C209.631058,440.607178 207.916473,441.664886 206.043106,443.064636 
	C190.834045,432.532593 179.397446,418.940216 170.642654,400.986694 
	C173.324738,402.546051 174.793732,403.400146 176.561081,404.464691 
z"/>
<path fill="#7B4B2B" opacity="1.000000" stroke="none" 
	d="
M241.977448,145.016022 
	C241.723404,144.633942 241.540543,144.192139 241.357681,143.750320 
	C241.620438,143.947983 241.883194,144.145645 242.168518,144.590118 
	C242.191116,144.836945 242.048630,144.956284 241.977448,145.016022 
z"/>
<path fill="#030201" opacity="1.000000" stroke="none" 
	d="
M132.005554,234.582825 
	C131.733017,226.249588 131.670563,218.300003 131.341415,210.361481 
	C131.255814,208.296783 130.249313,206.284668 129.825912,204.215622 
	C129.377106,202.022354 128.124756,199.227585 128.991379,197.695770 
	C130.628448,194.802109 133.072220,196.648636 135.364517,197.967896 
	C136.933151,198.870712 139.288559,199.495682 140.927414,199.011063 
	C151.782639,195.801178 161.224075,202.218735 161.827484,213.675446 
	C162.081146,218.491760 161.946945,223.333038 161.872070,228.161148 
	C161.739136,236.733978 157.066635,242.836945 149.381882,244.627487 
	C142.584366,246.211319 136.105637,242.587708 132.005554,234.582825 
z"/>
<path fill="#030101" opacity="1.000000" stroke="none" 
	d="
M276.049011,237.867188 
	C271.568665,244.142578 265.433014,245.404373 258.987457,243.607269 
	C252.952133,241.924576 249.036270,237.400269 248.812073,230.860489 
	C248.568573,223.757446 248.369598,216.568970 249.180542,209.536423 
	C250.058609,201.921951 258.982727,196.582550 266.508698,198.400299 
	C268.573608,198.899033 270.548248,199.771805 272.694916,200.518356 
	C273.790649,199.492950 274.717255,198.018311 275.998322,197.580093 
	C277.616058,197.026733 280.165619,196.595352 281.124573,197.448090 
	C282.088470,198.305191 282.400360,201.719009 281.598877,202.425766 
	C277.915680,205.673553 278.635376,209.360550 278.692291,213.614365 
	C278.799286,221.610870 280.764465,229.969498 276.049011,237.867188 
z"/>
<path fill="#AC3635" opacity="1.000000" stroke="none" 
	d="
M291.452209,250.084656 
	C295.318329,251.351288 298.969971,252.151077 302.124359,253.865707 
	C308.519928,257.342194 308.816132,265.038605 303.017578,269.345642 
	C294.381409,275.760406 275.720367,275.775543 267.022888,269.374817 
	C261.092072,265.010223 261.774048,257.865601 268.277344,253.828598 
	C275.390259,249.413208 283.193604,249.839233 291.452209,250.084656 
z"/>
<path fill="#AC3535" opacity="1.000000" stroke="none" 
	d="
M126.008308,249.968735 
	C133.523224,249.596100 139.907623,251.167389 145.223297,256.114685 
	C149.574539,260.164398 148.774445,267.211212 143.388977,269.960693 
	C132.227020,275.659332 120.894897,275.881622 109.644569,270.241852 
	C102.399429,266.609894 102.214134,259.366089 108.687447,254.490952 
	C113.816757,250.628006 119.491150,249.872055 126.008308,249.968735 
z"/>
<path fill="#080403" opacity="1.000000" stroke="none" 
	d="
M202.422882,290.786865 
	C194.020050,289.815033 186.742508,287.062469 180.701950,281.789307 
	C179.314667,280.578247 178.184341,277.563110 178.717773,275.977936 
	C179.806885,272.741302 182.782181,272.612183 185.103424,274.916992 
	C195.606140,285.345215 216.050064,284.939270 226.389130,275.485748 
	C227.638321,274.343567 231.534271,274.244446 232.766052,275.315338 
	C235.439362,277.639496 233.361328,280.205322 231.213623,281.966522 
	C222.976151,288.721619 213.399902,291.348602 202.422882,290.786865 
z"/>
<path fill="#090205" opacity="1.000000" stroke="none" 
	d="
M327.000061,368.400818 
	C349.825775,368.401794 372.151489,368.380219 394.477173,368.411102 
	C409.184937,368.431458 415.032806,374.332031 415.036682,389.046509 
	C415.041168,406.040710 415.067871,423.034973 415.024689,440.029053 
	C414.995422,451.549866 408.881165,458.398102 397.397736,458.481384 
	C364.244690,458.721863 331.086945,458.744873 297.934753,458.443390 
	C285.257111,458.328094 279.734833,451.965759 279.722229,439.181274 
	C279.705139,421.853851 279.689667,404.526398 279.727661,387.199066 
	C279.754883,374.776886 285.977753,368.538086 298.509827,368.418579 
	C307.839142,368.329620 317.169922,368.400726 327.000061,368.400818 
M287.809357,386.803345 
	C287.809174,404.459320 287.787689,422.115295 287.818726,439.771210 
	C287.832062,447.371368 290.530945,450.231720 297.886230,450.238678 
	C330.866150,450.269928 363.846191,450.259186 396.826111,450.210358 
	C404.236694,450.199371 406.967865,447.388123 406.988190,439.837036 
	C407.035767,422.181183 407.034119,404.525085 406.991913,386.869202 
	C406.974701,379.667053 404.183228,376.809662 397.085327,376.799927 
	C363.938843,376.754486 330.792236,376.744324 297.645721,376.770721 
	C290.782135,376.776184 288.509186,378.983612 287.809357,386.803345 
z"/>
<path fill="#03DAC6" opacity="1.000000" stroke="none" 
	d="
M287.811493,386.344543 
	C288.509186,378.983612 290.782135,376.776184 297.645721,376.770721 
	C330.792236,376.744324 363.938843,376.754486 397.085327,376.799927 
	C404.183228,376.809662 406.974701,379.667053 406.991913,386.869202 
	C407.034119,404.525085 407.035767,422.181183 406.988190,439.837036 
	C406.967865,447.388123 404.236694,450.199371 396.826111,450.210358 
	C363.846191,450.259186 330.866150,450.269928 297.886230,450.238678 
	C290.530945,450.231720 287.832062,447.371368 287.818726,439.771210 
	C287.787689,422.115295 287.809174,404.459320 287.811493,386.344543 
M309.721191,400.226501 
	C307.017212,402.430023 304.236420,404.546692 301.625397,406.855316 
	C296.385010,411.488708 296.474396,415.604034 301.884766,420.004333 
	C307.424561,424.509918 313.032928,428.931122 318.610718,433.389984 
	C320.683838,435.047302 322.558411,437.141785 324.901337,438.202118 
	C326.312164,438.840637 329.179565,438.483459 330.051117,437.446381 
	C330.872345,436.469238 330.370453,433.808380 329.642120,432.271332 
	C328.994629,430.904968 327.254700,430.044220 325.969208,428.994232 
	C319.616791,423.805389 313.255157,418.627747 306.631470,413.229950 
	C314.311096,406.959839 321.330414,401.139526 328.461426,395.459473 
	C330.684998,393.688293 332.151245,391.723267 330.306030,389.172699 
	C328.278351,386.369965 325.816467,387.159912 323.446930,389.130585 
	C319.105103,392.741638 314.685974,396.259796 309.721191,400.226501 
M370.735138,428.259583 
	C369.712097,429.112000 368.704651,429.984009 367.662720,430.812714 
	C365.399567,432.612671 363.543060,434.892517 365.645844,437.564789 
	C368.053070,440.623962 370.607819,438.713867 372.942108,436.834961 
	C380.069244,431.098358 387.262665,425.444122 394.385223,419.701874 
	C399.308533,415.732635 399.510315,411.259705 394.671265,407.187622 
	C387.542206,401.188629 380.205872,395.435883 372.957977,389.578125 
	C370.690094,387.745270 368.224731,385.610748 365.741241,388.899536 
	C363.466583,391.911743 365.485016,394.025879 367.924713,395.951752 
	C374.945038,401.493286 381.882080,407.140259 389.392578,413.180756 
	C383.105408,418.284729 377.214233,423.067230 370.735138,428.259583 
M335.243164,426.881897 
	C336.247406,428.527069 336.926392,430.956116 338.365479,431.553253 
	C339.396027,431.980865 342.091187,430.347748 342.933899,428.960144 
	C348.369781,420.009064 353.466370,410.852722 358.752747,401.809601 
	C360.200806,399.332489 360.672455,396.813080 357.964813,395.311951 
	C355.170959,393.763000 353.068695,395.206940 351.522308,397.996338 
	C346.284515,407.444458 340.874634,416.797180 335.243164,426.881897 
z"/>
<path fill="#fff" opacity="1.000000" stroke="none" 
	d="
M310.010132,400.021606 
	C314.685974,396.259796 319.105103,392.741638 323.446930,389.130585 
	C325.816467,387.159912 328.278351,386.369965 330.306030,389.172699 
	C332.151245,391.723267 330.684998,393.688293 328.461426,395.459473 
	C321.330414,401.139526 314.311096,406.959839 306.631470,413.229950 
	C313.255157,418.627747 319.616791,423.805389 325.969208,428.994232 
	C327.254700,430.044220 328.994629,430.904968 329.642120,432.271332 
	C330.370453,433.808380 330.872345,436.469238 330.051117,437.446381 
	C329.179565,438.483459 326.312164,438.840637 324.901337,438.202118 
	C322.558411,437.141785 320.683838,435.047302 318.610718,433.389984 
	C313.032928,428.931122 307.424561,424.509918 301.884766,420.004333 
	C296.474396,415.604034 296.385010,411.488708 301.625397,406.855316 
	C304.236420,404.546692 307.017212,402.430023 310.010132,400.021606 
z"/>
<path fill="#fff" opacity="1.000000" stroke="none" 
	d="
M371.029083,428.054626 
	C377.214233,423.067230 383.105408,418.284729 389.392578,413.180756 
	C381.882080,407.140259 374.945038,401.493286 367.924713,395.951752 
	C365.485016,394.025879 363.466583,391.911743 365.741241,388.899536 
	C368.224731,385.610748 370.690094,387.745270 372.957977,389.578125 
	C380.205872,395.435883 387.542206,401.188629 394.671265,407.187622 
	C399.510315,411.259705 399.308533,415.732635 394.385223,419.701874 
	C387.262665,425.444122 380.069244,431.098358 372.942108,436.834961 
	C370.607819,438.713867 368.053070,440.623962 365.645844,437.564789 
	C363.543060,434.892517 365.399567,432.612671 367.662720,430.812714 
	C368.704651,429.984009 369.712097,429.112000 371.029083,428.054626 
z"/>
<path fill="#fff" opacity="1.000000" stroke="none" 
	d="
M335.386841,426.534119 
	C340.874634,416.797180 346.284515,407.444458 351.522308,397.996338 
	C353.068695,395.206940 355.170959,393.763000 357.964813,395.311951 
	C360.672455,396.813080 360.200806,399.332489 358.752747,401.809601 
	C353.466370,410.852722 348.369781,420.009064 342.933899,428.960144 
	C342.091187,430.347748 339.396027,431.980865 338.365479,431.553253 
	C336.926392,430.956116 336.247406,428.527069 335.386841,426.534119 
z"/>
</svg>