<svg xmlns="http://www.w3.org/2000/svg" xmlns:xlink="http://www.w3.org/1999/xlink" viewBox="0,0,256,256" width="100px" height="100px" fill-rule="nonzero"><g fill="none" fill-rule="nonzero" stroke="none" stroke-width="none" stroke-linecap="none" stroke-linejoin="none" stroke-miterlimit="10" stroke-dasharray="" stroke-dashoffset="0" font-family="none" font-weight="none" font-size="none" text-anchor="none" style="mix-blend-mode: normal"><g transform="scale(2.56,2.56)"><path d="M39,88.649v0c-7.18,0 -13,-5.82 -13,-13v0c0,-7.18 5.82,-13 13,-13h13v13c0,7.18 -5.82,13 -13,13z" fill="#03DAC6" stroke="none" stroke-width="1" stroke-linecap="butt" stroke-linejoin="miter"></path><path d="M65.5,37.649h-13.5v-25h13.5c6.904,0 12.5,5.596 12.5,12.5v0c0,6.903 -5.596,12.5 -12.5,12.5z" fill="#03DAC6" stroke="none" stroke-width="1" stroke-linecap="butt" stroke-linejoin="miter"></path><path d="M38.5,12.649h13.5v25h-13.5c-6.904,0 -12.5,-5.596 -12.5,-12.5v0c0,-6.904 5.596,-12.5 12.5,-12.5z" fill="#03DAC6" stroke="none" stroke-width="1" stroke-linecap="butt" stroke-linejoin="miter"></path><path d="M38.5,37.649h13.5v25h-13.5c-6.904,0 -12.5,-5.596 -12.5,-12.5v0c0,-6.904 5.596,-12.5 12.5,-12.5z" fill="#03DAC6" stroke="none" stroke-width="1" stroke-linecap="butt" stroke-linejoin="miter"></path><circle cx="65.5" cy="51.149" r="11.5" fill="#03DAC6" stroke="none" stroke-width="1" stroke-linecap="butt" stroke-linejoin="miter"></circle><path d="M39,88.649v0c-7.18,0 -13,-5.82 -13,-13v0c0,-7.18 5.82,-13 13,-13h13v13c0,7.18 -5.82,13 -13,13z" fill="none" stroke="#1f212b" stroke-width="2" stroke-linecap="round" stroke-linejoin="round"></path><path d="M42.5,83.397c-1.067,0.483 -2.252,0.752 -3.5,0.752v0c-4.694,0 -8.5,-3.806 -8.5,-8.5v0" fill="none" stroke="#1f212b" stroke-width="1" stroke-linecap="round" stroke-linejoin="round"></path><path d="M46.212,80.149c-0.34,0.544 -0.741,1.047 -1.192,1.5" fill="none" stroke="#1f212b" stroke-width="1" stroke-linecap="round" stroke-linejoin="round"></path><path d="M47.5,72.149v3.5c0,0.512 -0.045,1.013 -0.132,1.5" fill="none" stroke="#1f212b" stroke-width="1" stroke-linecap="round" stroke-linejoin="round"></path><path d="M47.5,67.149v2" fill="none" stroke="#1f212b" stroke-width="1" stroke-linecap="round" stroke-linejoin="round"></path><path d="M65.5,37.649h-13.5v-25h13.5c6.904,0 12.5,5.596 12.5,12.5v0c0,6.903 -5.596,12.5 -12.5,12.5z" fill="none" stroke="#1f212b" stroke-width="2" stroke-linecap="round" stroke-linejoin="round"></path><path d="M65.5,17.149c4.418,0 8,3.582 8,8v0" fill="none" stroke="#1f212b" stroke-width="1" stroke-linecap="round" stroke-linejoin="round"></path><path d="M56.86,17.149h5.64" fill="none" stroke="#1f212b" stroke-width="1" stroke-linecap="round" stroke-linejoin="round"></path><path d="M38.5,12.649h13.5v25h-13.5c-6.904,0 -12.5,-5.596 -12.5,-12.5v0c0,-6.904 5.596,-12.5 12.5,-12.5z" fill="none" stroke="#1f212b" stroke-width="2" stroke-linecap="round" stroke-linejoin="round"></path><path d="M38.5,37.649h13.5v25h-13.5c-6.904,0 -12.5,-5.596 -12.5,-12.5v0c0,-6.904 5.596,-12.5 12.5,-12.5z" fill="none" stroke="#1f212b" stroke-width="2" stroke-linecap="round" stroke-linejoin="round"></path><circle cx="65.5" cy="51.149" r="11.5" fill="none" stroke="#1f212b" stroke-width="2" stroke-linecap="round" stroke-linejoin="round"></circle><path d="M60.138,46.649c1.284,-1.528 3.21,-2.5 5.362,-2.5" fill="none" stroke="#1f212b" stroke-width="1" stroke-linecap="round" stroke-linejoin="round"></path><path d="M59.174,54.149c-0.432,-0.909 -0.674,-1.926 -0.674,-3" fill="none" stroke="#1f212b" stroke-width="1" stroke-linecap="round" stroke-linejoin="round"></path><path d="M70.862,55.649c-1.284,1.528 -3.21,2.5 -5.362,2.5c-1.074,0 -2.091,-0.242 -3,-0.674" fill="none" stroke="#1f212b" stroke-width="1" stroke-linecap="round" stroke-linejoin="round"></path><path d="M72.5,51.149c0,0.695 -0.101,1.366 -0.29,2" fill="none" stroke="#1f212b" stroke-width="1" stroke-linecap="round" stroke-linejoin="round"></path></g></g></svg>